<svg width="264" height="36" viewBox="0 0 264 36" fill="none" xmlns="http://www.w3.org/2000/svg">
<path d="M54.817 28.6962V26.5111C56.0656 28.6025 58.438 29.0707 59.7802 29.0707C63.7758 29.0707 67.1782 25.6683 67.1782 20.6738C67.1782 15.8979 64.1191 12.2457 59.6241 12.2457C58.0946 12.2457 56.3465 12.7764 55.254 14.4308V6.37724H49.8225V28.6962H54.817ZM55.1291 20.6114C55.1291 18.3639 56.565 16.9904 58.4692 16.9904C60.2484 16.9904 61.7156 18.3639 61.7156 20.6114C61.7156 22.8589 60.2484 24.326 58.4692 24.326C56.565 24.326 55.1291 22.8901 55.1291 20.6114Z" fill="#170F49"/>
<path d="M80.8366 12.3706C80.5869 12.2769 80.2435 12.2457 79.8377 12.2457C77.7151 12.2457 76.1543 13.4007 75.3115 15.3672V12.6203H69.9113V28.6962H75.3427V22.7965C75.3427 19.4252 76.8723 17.3338 79.6192 17.3338C80.1811 17.3338 80.5869 17.3962 80.8366 17.5211V12.3706Z" fill="#170F49"/>
<path d="M82.9278 28.6962H88.3592V12.6203H82.9278V28.6962ZM82.7093 8.12529C82.7093 9.74848 83.9579 10.9347 85.6123 10.9347C87.2667 10.9347 88.5465 9.74848 88.5465 8.12529C88.5465 6.5021 87.2667 5.31592 85.6123 5.31592C83.9579 5.31592 82.7093 6.5021 82.7093 8.12529Z" fill="#170F49"/>
<path d="M95.8136 20.7363L90.2885 28.6962H96.313L98.9351 24.4509L101.557 28.6962H107.582L102.057 20.7363L107.707 12.6203H101.526L98.9351 17.0841L96.3442 12.6203H90.1636L95.8136 20.7363Z" fill="#170F49"/>
<path d="M113.964 15.773H116.025V22.2034C116.025 25.9492 118.147 28.0094 121.643 28.0094C123.235 28.0094 124.453 27.666 125.295 27.2603V22.6716C124.64 23.1398 123.86 23.2647 123.204 23.2647C122.205 23.2647 121.456 22.6716 121.456 21.2981V15.773H124.858V11.559H121.456V7.22005H116.181V11.559H113.964V15.773Z" fill="#4A3AFF"/>
<path d="M141.993 20.8923C142.15 20.3929 142.306 19.4252 142.306 18.5824C142.306 14.1811 139.184 11.1844 134.595 11.1844C129.851 11.1844 126.23 14.8678 126.23 19.6125C126.23 24.3572 129.757 28.0094 135.251 28.0094C137.967 28.0094 140.089 27.3227 142.212 25.4185L139.465 21.9849C138.685 22.734 137.405 23.4832 135.657 23.4832C133.815 23.4832 132.067 22.7028 131.817 20.8923H141.993ZM134.471 15.4921C135.875 15.4921 136.968 16.3661 137.061 17.7396V17.7708H131.724C131.817 16.3037 133.066 15.4921 134.471 15.4921Z" fill="#4A3AFF"/>
<path d="M144.975 11.559V27.6348H150.407V19.1755C150.407 17.1777 151.437 15.9291 152.966 15.9291C154.59 15.9291 155.464 16.928 155.464 18.8009V27.6348H160.895V19.1755C160.895 17.1777 161.988 15.9291 163.455 15.9291C165.078 15.9291 165.952 16.928 165.952 18.8009V27.6348H171.383V17.8332C171.383 13.6816 169.073 11.1844 165.172 11.1844C162.456 11.1844 160.989 12.4018 159.896 13.8065C158.804 12.0896 157.056 11.1844 154.683 11.1844C152.779 11.1844 151.249 11.8399 150.157 13.4631V11.559H144.975Z" fill="#4A3AFF"/>
<path d="M175.063 33.8779H180.494V26.0741C181.524 27.5724 183.335 28.0094 184.864 28.0094C189.359 28.0094 192.418 24.3572 192.418 19.5813C192.418 14.5869 188.922 11.1844 184.927 11.1844C183.616 11.1844 181.399 11.6526 180.057 13.744V11.559H175.063V33.8779ZM180.369 19.6437C180.369 17.365 181.805 15.9291 183.709 15.9291C185.488 15.9291 186.956 17.3962 186.956 19.6437C186.956 21.8912 185.488 23.2647 183.709 23.2647C181.805 23.2647 180.369 21.8912 180.369 19.6437Z" fill="#4A3AFF"/>
<path d="M194.964 22.8277C194.964 26.1989 196.899 28.0094 200.271 28.0094C201.363 28.0094 202.206 27.8221 202.799 27.5412V23.1711C202.393 23.3271 202.019 23.3583 201.738 23.3583C200.489 23.3583 200.395 22.578 200.395 21.8288V5.31592H194.964V22.8277Z" fill="#4A3AFF"/>
<path d="M209.514 28.0094C211.637 28.0094 213.042 27.073 213.666 25.8556V27.6348H218.692V17.5835C218.692 13.588 215.945 11.1844 211.294 11.1844C208.141 11.1844 205.55 12.5579 204.176 14.3059L207.017 17.7084C207.86 16.7407 209.171 15.8042 211.013 15.8042C212.355 15.8042 213.51 16.2725 213.51 17.6147V17.6459L209.358 18.4575C205.987 19.1755 204.114 20.7987 204.114 23.1711C204.114 26.0116 206.393 28.0094 209.514 28.0094ZM213.51 20.9236V21.1733C213.51 22.9525 212.511 24.1075 210.794 24.1075C209.826 24.1075 209.296 23.6081 209.296 22.8277C209.296 22.0473 209.92 21.6415 210.888 21.423L213.51 20.9236Z" fill="#4A3AFF"/>
<path d="M220.627 15.773H222.687V22.2034C222.687 25.9492 224.809 28.0094 228.306 28.0094C229.898 28.0094 231.115 27.666 231.958 27.2603V22.6716C231.302 23.1398 230.522 23.2647 229.866 23.2647C228.867 23.2647 228.118 22.6716 228.118 21.2981V15.773H231.521V11.559H228.118V7.22005H222.843V11.559H220.627V15.773Z" fill="#4A3AFF"/>
<path d="M248.656 20.8923C248.812 20.3929 248.968 19.4252 248.968 18.5824C248.968 14.1811 245.846 11.1844 241.258 11.1844C236.513 11.1844 232.892 14.8678 232.892 19.6125C232.892 24.3572 236.419 28.0094 241.913 28.0094C244.629 28.0094 246.752 27.3227 248.874 25.4185L246.127 21.9849C245.347 22.734 244.067 23.4832 242.319 23.4832C240.477 23.4832 238.729 22.7028 238.48 20.8923H248.656ZM241.133 15.4921C242.538 15.4921 243.63 16.3661 243.724 17.7396V17.7708H238.386C238.48 16.3037 239.728 15.4921 241.133 15.4921Z" fill="#4A3AFF"/>
<path d="M257.194 28.0094C261.189 28.0094 263.874 25.7931 263.874 22.9213C263.874 19.7374 261.408 18.8946 258.879 17.8957C256.601 16.928 255.633 16.7719 255.633 16.1788C255.633 15.5857 256.351 15.2424 257.194 15.2424C258.692 15.2424 259.535 15.9603 260.066 16.8656L263.437 14.4308C262.438 12.5266 260.097 11.1844 257.35 11.1844C253.729 11.1844 250.701 12.9324 250.701 16.1476C250.701 18.7385 252.48 20.0183 255.633 21.1421C257.849 21.9224 258.942 22.2034 258.942 23.0462C258.942 23.6393 258.349 23.9514 257.256 23.9514C255.633 23.9514 254.384 22.9525 253.635 21.6727L250.17 24.326C251.513 26.6984 254.197 28.0094 257.194 28.0094Z" fill="#4A3AFF"/>
<path fill-rule="evenodd" clip-rule="evenodd" d="M30.8052 10.2286C33.6044 10.2286 35.8736 7.95941 35.8736 5.1602C35.8736 2.361 33.6044 0.0917969 30.8052 0.0917969C28.006 0.0917969 25.7368 2.361 25.7368 5.1602C25.7368 7.95941 28.006 10.2286 30.8052 10.2286Z" fill="#8055FA"/>
<path fill-rule="evenodd" clip-rule="evenodd" d="M30.8051 22.3889C33.6043 22.3889 35.8735 20.12 35.8735 17.3211C35.8735 14.5223 33.6043 12.2534 30.8051 12.2534C28.0059 12.2534 25.7366 14.5223 25.7366 17.3211C25.7366 20.12 28.0059 22.3889 30.8051 22.3889Z" fill="#7550FB"/>
<path fill-rule="evenodd" clip-rule="evenodd" d="M30.8051 35.0035C33.6043 35.0035 35.8735 32.7343 35.8735 29.9351C35.8735 27.1359 33.6043 24.8667 30.8051 24.8667C28.0059 24.8667 25.7366 27.1359 25.7366 29.9351C25.7366 32.7343 28.0059 35.0035 30.8051 35.0035Z" fill="#6A4AFC"/>
<path d="M18.1915 22.3894C20.9904 22.3894 23.2593 20.1205 23.2593 17.3216C23.2593 14.5228 20.9904 12.2539 18.1915 12.2539C15.3927 12.2539 13.1238 14.5228 13.1238 17.3216C13.1238 20.1205 15.3927 22.3894 18.1915 22.3894Z" fill="#6045FD"/>
<path d="M18.1915 22.3894C20.9904 22.3894 23.2593 20.1205 23.2593 17.3216C23.2593 14.5228 20.9904 12.2539 18.1915 12.2539C15.3927 12.2539 13.1238 14.5228 13.1238 17.3216C13.1238 20.1205 15.3927 22.3894 18.1915 22.3894Z" stroke="#A0A3BD"/>
<path fill-rule="evenodd" clip-rule="evenodd" d="M18.1909 35.004C20.9897 35.004 23.2586 32.7348 23.2586 29.9356C23.2586 27.1364 20.9897 24.8672 18.1909 24.8672C15.3921 24.8672 13.1232 27.1364 13.1232 29.9356C13.1232 32.7348 15.3921 35.004 18.1909 35.004Z" fill="#553FFE"/>
<path fill-rule="evenodd" clip-rule="evenodd" d="M6.02934 35.004C8.82855 35.004 11.0977 32.7348 11.0977 29.9356C11.0977 27.1364 8.82855 24.8672 6.02934 24.8672C3.23014 24.8672 0.960938 27.1364 0.960938 29.9356C0.960938 32.7348 3.23014 35.004 6.02934 35.004Z" fill="#4A3AFF"/>
</svg>
